<svg width="21" height="21" viewBox="0 0 21 21" fill="none" xmlns="http://www.w3.org/2000/svg">
<path d="M3.29499 5.53398C3.29499 4.93423 3.53317 4.35904 3.95717 3.93486C4.38116 3.51068 4.95625 3.27224 5.55599 3.27198H6.58499C7.18184 3.27152 7.75435 3.03539 8.17799 2.61498L8.89699 1.89498C9.10647 1.68418 9.35543 1.51673 9.62964 1.40219C9.90386 1.28765 10.198 1.22826 10.4951 1.22743C10.7923 1.22659 11.0867 1.28432 11.3616 1.39732C11.6364 1.51032 11.8863 1.67637 12.097 1.88598L12.106 1.89398L12.826 2.61398C13.2494 3.03476 13.8221 3.27095 14.419 3.27098H15.45C15.747 3.27098 16.0412 3.32949 16.3156 3.44316C16.5901 3.55684 16.8394 3.72346 17.0495 3.9335C17.2595 4.14355 17.4261 4.39291 17.5398 4.66735C17.6535 4.94179 17.712 5.23593 17.712 5.53298V6.56098C17.712 7.15821 17.9482 7.73121 18.369 8.15498L19.089 8.87498C19.2999 9.08439 19.4674 9.33329 19.582 9.60747C19.6966 9.88165 19.7561 10.1757 19.757 10.4729C19.758 10.7701 19.7003 11.0645 19.5874 11.3394C19.4745 11.6143 19.3085 11.8643 19.099 12.075L19.09 12.084L18.37 12.804C17.9491 13.2269 17.7128 13.7993 17.713 14.396V15.428C17.7122 16.0275 17.4734 16.6021 17.049 17.0255C16.6246 17.4489 16.0495 17.6865 15.45 17.686H14.417C13.8199 17.6862 13.2472 17.9227 12.824 18.344L12.104 19.063C11.8948 19.2741 11.646 19.4419 11.3719 19.5568C11.0978 19.6716 10.8037 19.7313 10.5065 19.7325C10.2093 19.7336 9.91475 19.6761 9.63978 19.5633C9.36481 19.4504 9.11478 19.2845 8.90399 19.075L8.89499 19.066L8.17599 18.347C7.75258 17.9261 7.18 17.6896 6.58299 17.689H5.55599C4.95634 17.689 4.38125 17.4508 3.95723 17.0267C3.53321 16.6027 3.29499 16.0276 3.29499 15.428V14.394C3.29476 13.7972 3.05818 13.2248 2.63699 12.802L1.91799 12.082C1.70683 11.8728 1.53901 11.624 1.42415 11.3498C1.30928 11.0756 1.24963 10.7815 1.24861 10.4843C1.24759 10.187 1.30522 9.89248 1.41819 9.61753C1.53117 9.34259 1.69727 9.09263 1.90699 8.88198L1.91599 8.87298L2.63499 8.15298C3.0563 7.72944 3.29286 7.15637 3.29299 6.55898V5.53398" stroke="#C9C9C9" stroke-width="1.25" stroke-miterlimit="10" stroke-linecap="round" stroke-linejoin="round"/>
<path d="M7.93199 13.05L13.072 7.90997" stroke="#C9C9C9" stroke-width="1.5" stroke-miterlimit="10" stroke-linecap="round" stroke-linejoin="round"/>
</svg>
