<svg width="19" height="19" viewBox="0 0 19 19" fill="none" xmlns="http://www.w3.org/2000/svg">
<path opacity="0.8" d="M9.5 19C14.7467 19 19 14.7467 19 9.5C19 4.25329 14.7467 0 9.5 0C4.25329 0 0 4.25329 0 9.5C0 14.7467 4.25329 19 9.5 19Z" fill="#A8A8A8"/>
<path d="M9.577 15.193C9.41813 15.1931 9.26463 15.1355 9.145 15.031C8.693 14.636 8.258 14.265 7.874 13.937C6.87904 13.1442 5.94969 12.2723 5.095 11.33C4.40591 10.587 4.01159 9.61806 3.986 8.60501C3.97171 7.72654 4.28834 6.87482 4.873 6.21901C5.15711 5.90936 5.50297 5.66269 5.88827 5.49493C6.27358 5.32717 6.68977 5.24203 7.11 5.24501C7.74708 5.24226 8.36621 5.45592 8.866 5.85101C9.13696 6.06308 9.37607 6.31296 9.576 6.59301C9.77599 6.31302 10.0151 6.06314 10.286 5.85101C10.7863 5.45549 11.4062 5.2418 12.044 5.24501C12.4642 5.24203 12.8804 5.32717 13.2657 5.49493C13.651 5.66269 13.9969 5.90936 14.281 6.21901C14.8659 6.87508 15.1825 7.72719 15.168 8.60601C15.1423 9.61874 14.7479 10.5873 14.059 11.33C13.2062 12.2714 12.2788 13.1426 11.286 13.935C10.901 14.263 10.465 14.635 10.012 15.035C9.89101 15.1388 9.73638 15.1949 9.577 15.193ZM7.11 5.90001C6.78047 5.8974 6.45405 5.96385 6.15178 6.0951C5.8495 6.22634 5.57808 6.41946 5.355 6.66201C4.88129 7.19694 4.62638 7.89063 4.641 8.60501C4.66594 9.46532 5.007 10.2863 5.599 10.911C6.43061 11.8229 7.33346 12.6673 8.299 13.436C8.685 13.765 9.122 14.136 9.577 14.536C10.035 14.136 10.477 13.764 10.859 13.436C11.8245 12.6673 12.7274 11.8229 13.559 10.911C14.151 10.2863 14.4921 9.46532 14.517 8.60501C14.5316 7.89063 14.2767 7.19694 13.803 6.66201C13.5795 6.41896 13.3074 6.22554 13.0044 6.09428C12.7014 5.96302 12.3742 5.89684 12.044 5.90001C11.5518 5.89851 11.0737 6.06423 10.688 6.37001C10.3846 6.61299 10.1284 6.90956 9.932 7.24501C9.89541 7.30656 9.84344 7.35753 9.78121 7.39294C9.71897 7.42834 9.6486 7.44696 9.577 7.44696C9.5054 7.44696 9.43502 7.42834 9.37279 7.39294C9.31055 7.35753 9.25859 7.30656 9.222 7.24501C9.02568 6.90953 8.76943 6.61294 8.466 6.37001C8.08031 6.06423 7.6022 5.89851 7.11 5.90001Z" fill="white"/>
</svg>
