<svg width="23" height="23" viewBox="0 0 23 23" fill="none" xmlns="http://www.w3.org/2000/svg">
<path d="M22.143 10.17L11.737 0.194984C11.6065 0.0688162 11.432 -0.00170898 11.2505 -0.00170898C11.069 -0.00170898 10.8945 0.0688162 10.764 0.194984L0.347 10.18C0.126032 10.4015 0.00134187 10.7011 0 11.014C0.000528803 11.3247 0.124177 11.6225 0.343855 11.8421C0.563533 12.0618 0.861329 12.1855 1.172 12.186H2.813V20.624C2.81287 20.8703 2.86127 21.1142 2.95544 21.3418C3.04961 21.5694 3.1877 21.7762 3.36182 21.9505C3.53594 22.1247 3.74269 22.2629 3.97024 22.3572C4.19779 22.4515 4.44169 22.5 4.688 22.5H17.813C18.3103 22.5 18.7872 22.3024 19.1388 21.9508C19.4905 21.5992 19.688 21.1223 19.688 20.625V12.186H21.329C21.6395 12.1852 21.937 12.0614 22.1565 11.8418C22.376 11.6221 22.4995 11.3245 22.5 11.014C22.4973 10.6965 22.369 10.393 22.143 10.17Z" fill="#072040"/>
</svg>
