<svg width="73" height="72" viewBox="0 0 73 72" fill="none" xmlns="http://www.w3.org/2000/svg">
<path d="M37 0H36C16.1177 0 0 16.1177 0 36C0 55.8823 16.1177 72 36 72H37C56.8823 72 73 55.8823 73 36C73 16.1177 56.8823 0 37 0Z" fill="black"/>
<path d="M63 28.25L26.4208 43.825C23.3875 45.1083 20.8396 45.7521 18.7792 45.7521C16.4458 45.7521 14.7521 44.9354 13.7021 43.3C13.0417 42.25 12.8479 40.9187 13.1188 39.3042C13.3896 37.6896 14.1104 35.9708 15.2771 34.1417C16.25 32.6625 17.8438 30.7187 20.0625 28.3083C19.3099 29.4931 18.7581 30.7939 18.4292 32.1583C17.8458 34.6479 18.3708 36.475 20.0042 37.6417C20.7813 38.1854 21.85 38.4583 23.2125 38.4583C24.3 38.4583 25.525 38.2833 26.8875 37.9333L63 28.25Z" fill="white"/>
</svg>
