<svg width="22" height="22" viewBox="0 0 22 22" fill="none" xmlns="http://www.w3.org/2000/svg">
<path d="M19.2727 2.15457e-07H11.0727C10.9051 5.23423e-05 10.7443 0.0665834 10.6257 0.185L0.679714 10.134C0.244439 10.5704 0 11.1616 0 11.778C0 12.3944 0.244439 12.9856 0.679714 13.422L8.17971 20.922C8.39524 21.1382 8.65152 21.3096 8.93371 21.4262C9.2159 21.5427 9.5184 21.6021 9.82371 21.601C10.129 21.6021 10.4315 21.5427 10.7137 21.4262C10.9959 21.3096 11.2522 21.1382 11.4677 20.922L21.4167 10.973C21.5351 10.8544 21.6017 10.6936 21.6017 10.526V2.326C21.6012 1.70875 21.3555 1.11698 20.9188 0.680795C20.4821 0.244614 19.89 -0.000265154 19.2727 2.15457e-07ZM20.3317 10.259L10.5677 20.023C10.3684 20.2211 10.0987 20.3323 9.81771 20.3323C9.53668 20.3323 9.26706 20.2211 9.06771 20.023L1.56771 12.523C1.36888 12.324 1.25719 12.0543 1.25719 11.773C1.25719 11.4917 1.36888 11.222 1.56771 11.023L11.3317 1.259H19.2667C19.5476 1.25926 19.8169 1.37089 20.0156 1.56941C20.2143 1.76792 20.3262 2.03713 20.3267 2.318L20.3317 10.259Z" fill="#C9C9C9"/>
<path d="M16.0207 3.589C15.5608 3.58912 15.1151 3.74871 14.7597 4.04058C14.4042 4.33245 14.161 4.73854 14.0713 5.18965C13.9817 5.64077 14.0513 6.10899 14.2682 6.51456C14.4851 6.92013 14.8359 7.23794 15.2609 7.41384C15.6858 7.58975 16.1586 7.61287 16.5987 7.47926C17.0388 7.34566 17.419 7.06359 17.6744 6.68112C17.9299 6.29865 18.0448 5.83944 17.9996 5.38174C17.9544 4.92403 17.752 4.49615 17.4267 4.171C17.2425 3.98583 17.0233 3.83905 16.782 3.73914C16.5407 3.63924 16.2819 3.58821 16.0207 3.589ZM16.5317 6.089C16.4135 6.20697 16.258 6.28031 16.0918 6.29653C15.9256 6.31274 15.7589 6.27083 15.6201 6.17793C15.4813 6.08504 15.379 5.9469 15.3306 5.78705C15.2823 5.6272 15.2908 5.45552 15.3548 5.30126C15.4188 5.147 15.5343 5.0197 15.6816 4.94103C15.829 4.86237 15.999 4.83722 16.1628 4.86985C16.3266 4.90249 16.474 4.9909 16.5799 5.12002C16.6858 5.24914 16.7437 5.41099 16.7437 5.578C16.7438 5.6728 16.7252 5.76669 16.6888 5.85423C16.6524 5.94177 16.599 6.02223 16.5317 6.089Z" fill="#C9C9C9"/>
</svg>
