<svg width="20" height="22" viewBox="0 0 20 22" fill="none" xmlns="http://www.w3.org/2000/svg">
<path d="M9.66023 1.25C7.15344 1.25 5.11401 3.28943 5.11401 5.79622C5.11401 8.30301 7.15344 10.3424 9.66023 10.3424C12.167 10.3424 14.2065 8.30301 14.2065 5.79622C14.2065 3.28943 12.167 1.25 9.66023 1.25ZM9.66023 0C12.8563 0 15.4565 2.60018 15.4565 5.79622C15.4565 8.99226 12.8563 11.5924 9.66023 11.5924C6.46419 11.5924 3.86401 8.99226 3.86401 5.79622C3.86401 2.60018 6.46419 0 9.66023 0Z" fill="#C9C9C9"/>
<path d="M8.37232 14.13C6.47682 14.13 4.68941 14.8849 3.33935 16.2557C2.13552 17.4781 1.41492 19.0494 1.27508 20.7322H18.0457C17.9058 19.0494 17.1852 17.4781 15.9814 16.2557C14.6313 14.8849 12.8439 14.13 10.9484 14.13H8.37232ZM8.37232 12.88H10.9484C13.1814 12.88 15.2851 13.7674 16.872 15.3786C18.4511 16.982 19.3207 19.0985 19.3207 21.3383C19.3207 21.6939 19.0324 21.9822 18.6767 21.9822H0.644028C0.288357 21.9822 7.62939e-06 21.6939 7.62939e-06 21.3383C7.62939e-06 19.0985 0.869648 16.982 2.44876 15.3786C4.03563 13.7674 6.13937 12.88 8.37232 12.88Z" fill="#C9C9C9"/>
</svg>
