<svg width="37" height="40" viewBox="0 0 37 40" fill="none" xmlns="http://www.w3.org/2000/svg">
<path d="M25.859 17.229C25.859 16.8206 25.6968 16.4289 25.408 16.1401C25.1191 15.8513 24.7274 15.689 24.319 15.689H8.45901C8.05057 15.689 7.65887 15.8513 7.37006 16.1401C7.08126 16.4289 6.91901 16.8206 6.91901 17.229C6.91901 17.6375 7.08126 18.0292 7.37006 18.318C7.65887 18.6068 8.05057 18.769 8.45901 18.769H24.319C24.7274 18.769 25.1191 18.6068 25.408 18.318C25.6968 18.0292 25.859 17.6375 25.859 17.229Z" fill="#FFC709"/>
<path d="M8.45901 21.848C8.05057 21.848 7.65887 22.0103 7.37006 22.2991C7.08126 22.5879 6.91901 22.9796 6.91901 23.388C6.91901 23.7965 7.08126 24.1882 7.37006 24.477C7.65887 24.7658 8.05057 24.928 8.45901 24.928H18.091C18.4994 24.928 18.8911 24.7658 19.18 24.477C19.4688 24.1882 19.631 23.7965 19.631 23.388C19.631 22.9796 19.4688 22.5879 19.18 22.2991C18.8911 22.0103 18.4994 21.848 18.091 21.848H8.45901Z" fill="#FFC709"/>
<path d="M12.076 36.63H6.926C6.10938 36.6292 5.32643 36.3045 4.74899 35.727C4.17155 35.1496 3.84679 34.3666 3.846 33.55V6.45002C3.84679 5.63339 4.17155 4.85044 4.74899 4.273C5.32643 3.69556 6.10938 3.37081 6.926 3.37002H25.857C26.6736 3.37081 27.4566 3.69556 28.034 4.273C28.6115 4.85044 28.9362 5.63339 28.937 6.45002V15.92C28.937 16.3284 29.0992 16.7202 29.3881 17.009C29.6769 17.2978 30.0686 17.46 30.477 17.46C30.8854 17.46 31.2771 17.2978 31.5659 17.009C31.8548 16.7202 32.017 16.3284 32.017 15.92V6.45002C32.0151 4.81694 31.3655 3.2513 30.2107 2.09664C29.0558 0.941975 27.4901 0.292604 25.857 0.291016H6.926C5.2931 0.292868 3.72761 0.942356 2.57298 2.09699C1.41834 3.25163 0.768851 4.81712 0.766998 6.45002V33.55C0.768851 35.1829 1.41834 36.7484 2.57298 37.903C3.72761 39.0577 5.2931 39.7072 6.926 39.709H12.076C12.4844 39.709 12.8761 39.5468 13.1649 39.258C13.4537 38.9692 13.616 38.5774 13.616 38.169C13.616 37.7606 13.4537 37.3689 13.1649 37.0801C12.8761 36.7913 12.4844 36.63 12.076 36.63Z" fill="#FFC709"/>
<path d="M34.743 22.585C33.8761 21.7201 32.7016 21.2343 31.477 21.2343C30.2524 21.2343 29.0779 21.7201 28.211 22.585L19.757 31.02C19.5774 31.199 19.4449 31.4195 19.371 31.662L17.53 37.723C17.4501 37.9868 17.4424 38.2671 17.5077 38.5349C17.5731 38.8026 17.7091 39.0479 17.9015 39.2451C18.094 39.4424 18.3358 39.5844 18.6019 39.6563C18.8679 39.7282 19.1484 39.7274 19.414 39.654L25.629 37.932C25.8848 37.8612 26.1181 37.7255 26.306 37.538L34.742 29.118C35.6071 28.2511 36.0931 27.0764 36.0933 25.8517C36.0934 24.627 35.6078 23.4522 34.743 22.585ZM24.418 35.072L21.291 35.938L22.206 32.925L27.906 27.234L30.084 29.412L24.418 35.072ZM32.566 26.939L32.266 27.239L30.088 25.061L30.388 24.761C30.6767 24.4721 31.0683 24.3096 31.4768 24.3094C31.8852 24.3093 32.2771 24.4713 32.566 24.76C32.855 25.0487 33.0174 25.4404 33.0176 25.8488C33.0178 26.2573 32.8557 26.6491 32.567 26.938L32.566 26.939Z" fill="#FFC709"/>
<path d="M24.318 9.53003H8.45901C8.05057 9.53003 7.65887 9.69228 7.37006 9.98109C7.08126 10.2699 6.91901 10.6616 6.91901 11.07C6.91901 11.4785 7.08126 11.8702 7.37006 12.159C7.65887 12.4478 8.05057 12.61 8.45901 12.61H24.319C24.7274 12.61 25.1191 12.4478 25.408 12.159C25.6968 11.8702 25.859 11.4785 25.859 11.07C25.859 10.6616 25.6968 10.2699 25.408 9.98109C25.1191 9.69228 24.7264 9.53003 24.318 9.53003Z" fill="#FFC709"/>
</svg>
